# xmcd
#
# Track frame offsets: 
#        150
#        1310
#        24797
#        38917
#        50395
#        68270
#        80705
#        103167
#        123455
#        141682
#        152205
#        170982
#        179937
#        202005
#        234302
#        247532
#        266032
#
# Disc length: 3825 seconds
#
# Revision: 5
# Processed by: cddbd v1.5.2PL0 Copyright (c) Steve Scherf et al.
# Submitted via: ExactAudioCopy v0.90b4
#
DISCID=ee0eef11
DTITLE=Baz Luhrmann - Something For Everybody: music from the house of
DTITLE=Iona
DYEAR=1997
DGENRE=Electronic
TTITLE0=Bazmark Fanfare
TTITLE1=Young Hearts Run Free (The Overture Mix)
TTITLE2=Lovefool (Snooper version)
TTITLE3=Perhaps Perhaps Perhaps
TTITLE4=Time After Time (The S.F.E. Version)
TTITLE5=Che Gelida Manina (Your tiny hand is frozen)
TTITLE6=When Doves Cry (Extended Mix)
TTITLE7=Love Is In The Air (Fran Mix)
TTITLE8=NUTBOD (Houseboats of Kashmir Mix)
TTITLE9=Happy Feet (High Heels Mix)
TTITLE10=Angel (7" Mix)
TTITLE11=Os Qundos De Ya Ya
TTITLE12=Aquarius-Let The Sun Shine In
TTITLE13=Everybody's Free (to wear sunscreen) Mix
TTITLE14=I'm Losing You
TTITLE15=Now Until The Break Of Day (single version)
TTITLE16=Jupiter (edit). [From The Planets]
EXTD=
EXTT0=
EXTT1=
EXTT2=
EXTT3=
EXTT4=
EXTT5=
EXTT6=
EXTT7=
EXTT8=
EXTT9=
EXTT10=
EXTT11=
EXTT12=
EXTT13=
EXTT14=
EXTT15=
EXTT16=
PLAYORDER=
